<svg width="707" height="455" viewBox="0 0 707 455" fill="none" xmlns="http://www.w3.org/2000/svg">
<path d="M77.3999 335V392" stroke="#2D255E" stroke-width="6" stroke-miterlimit="10" stroke-linecap="round" stroke-linejoin="round"/>
<path d="M96.2 336.8H90.2C78.4 336.8 68.8 327.2 68.8 315.4V266.2C68.8 254.4 78.4 244.8 90.2 244.8H96.2C108 244.8 117.6 254.4 117.6 266.2V315.4C117.7 327.2 108.1 336.8 96.2 336.8Z" fill="#14A56A"/>
<path d="M96.2 336.8H90.2C78.4 336.8 68.8 327.2 68.8 315.4V266.2C68.8 254.4 78.4 244.8 90.2 244.8H96.2C108 244.8 117.6 254.4 117.6 266.2V315.4C117.7 327.2 108.1 336.8 96.2 336.8Z" stroke="#2D255E" stroke-width="6" stroke-miterlimit="10" stroke-linecap="round" stroke-linejoin="round"/>
<path d="M61.2 354.9L64.2 370.1L77.3999 375.1" stroke="#2D255E" stroke-width="6" stroke-miterlimit="10" stroke-linecap="round" stroke-linejoin="round"/>
<path d="M54.9 357.4C45.2 357.4 37.3 349.5 37.3 339.8V313.7C37.3 304 45.2 296.1 54.9 296.1C64.6 296.1 72.5 304 72.5 313.7V339.8C72.5 349.5 64.6 357.4 54.9 357.4Z" fill="#12B075"/>
<path d="M54.9 357.4C45.2 357.4 37.3 349.5 37.3 339.8V313.7C37.3 304 45.2 296.1 54.9 296.1C64.6 296.1 72.5 304 72.5 313.7V339.8C72.5 349.5 64.6 357.4 54.9 357.4Z" stroke="#2D255E" stroke-width="6" stroke-miterlimit="10" stroke-linecap="round" stroke-linejoin="round"/>
<path d="M100.2 448.6H54.7001L48.6001 389.1H106.3L100.2 448.6Z" fill="#69351F"/>
<path d="M89 389.1L82.8 448.6H100.2L106.3 389.1H89Z" fill="#632D1B"/>
<path d="M104.2 401.5H82.6001V409.8H104.2V401.5Z" fill="#562314"/>
<path d="M69.2999 416.1H50.8999V424.4H69.2999V416.1Z" fill="#562314"/>
<path d="M101.7 429.1H76.3999V437.4H101.7V429.1Z" fill="#562314"/>
<path d="M100.2 448.6H54.7001L48.6001 389.1H106.3L100.2 448.6Z" stroke="#2D255E" stroke-width="6" stroke-miterlimit="10" stroke-linecap="round" stroke-linejoin="round"/>
<path d="M78.5 369.8L92.7 362V290.8" stroke="#2D255E" stroke-width="6" stroke-miterlimit="10" stroke-linecap="round" stroke-linejoin="round"/>
<path d="M93.3999 312.7L104.2 304" stroke="#2D255E" stroke-width="6" stroke-miterlimit="10" stroke-linecap="round" stroke-linejoin="round"/>
<path opacity="0.38" d="M80.7 282.2L85.6 290.8" stroke="#006837" stroke-width="6" stroke-miterlimit="10" stroke-linecap="round" stroke-linejoin="round"/>
<path opacity="0.38" d="M84.8 263.3L89.7 271.8" stroke="#006837" stroke-width="6" stroke-miterlimit="10" stroke-linecap="round" stroke-linejoin="round"/>
<path d="M96.3 261.7L101.2 270.2" stroke="#39D188" stroke-width="6" stroke-miterlimit="10" stroke-linecap="round" stroke-linejoin="round"/>
<path opacity="0.38" d="M51.6001 330.3L54.6001 335.4" stroke="#006837" stroke-width="6" stroke-miterlimit="10" stroke-linecap="round" stroke-linejoin="round"/>
<path d="M53.3 316.2L56.4 321.4" stroke="#39D188" stroke-width="6" stroke-miterlimit="10" stroke-linecap="round" stroke-linejoin="round"/>
<path d="M647.9 117.8H589.9L572.8 21.8H625.9L647.9 117.8Z" fill="white"/>
<path d="M589.9 117.8H531.9L519.7 21.8H572.8L589.9 117.8Z" fill="#F5A623"/>
<path d="M531.9 117.8H473.9L466.6 21.8H519.7L531.9 117.8Z" fill="white"/>
<path d="M473.9 117.8H415.9L413.5 21.8H466.6L473.9 117.8Z" fill="#F5A623"/>
<path d="M415.9 117.8H357.9L360.4 21.8H413.5L415.9 117.8Z" fill="white"/>
<path d="M357.9 117.8H299.9L307.3 21.8H360.4L357.9 117.8Z" fill="#F5A623"/>
<path d="M299.9 117.8H241.9L254.1 21.8H307.3L299.9 117.8Z" fill="white"/>
<path d="M241.9 117.8H183.9L201 21.8H254.1L241.9 117.8Z" fill="#F5A623"/>
<path d="M183.9 117.8H125.9L147.9 21.8H201L183.9 117.8Z" fill="white"/>
<path d="M316.9 154.2H147.9V390.2H316.9V154.2Z" fill="#F5969C"/>
<path opacity="0.18" d="M290.4 342.2H174.4V348.3H290.4V342.2Z" fill="#282828" stroke="#282828" stroke-width="6" stroke-miterlimit="10" stroke-linecap="round" stroke-linejoin="round"/>
<path d="M308.8 213.3H283.5V225H308.8V213.3Z" fill="#DF747C"/>
<path d="M164.8 192.9H147.9V204.6H164.8V192.9Z" fill="#DF747C"/>
<path d="M318.8 228H300.8V239.7H318.8V228Z" fill="#DF747C"/>
<path d="M315.2 352.3H302.5V364H315.2V352.3Z" fill="#DF747C"/>
<path d="M217.8 352.3H192.5V364H217.8V352.3Z" fill="#DF747C"/>
<path d="M203.8 367H178.5V378.7H203.8V367Z" fill="#DF747C"/>
<path d="M317.9 154.2H147.9V390.2H317.9V154.2Z" stroke="#2D255E" stroke-width="6" stroke-miterlimit="10" stroke-linecap="round" stroke-linejoin="round"/>
<path d="M284.4 162.2H180.4V334.2H284.4V162.2Z" fill="#66CDFD"/>
<path d="M247.4 324.4H209.1C207.6 324.4 206.4 323.2 206.4 321.7V320.5C206.4 319 207.6 317.8 209.1 317.8H247.4C248.9 317.8 250.1 319 250.1 320.5V321.7C250.2 323.2 248.9 324.4 247.4 324.4Z" fill="#3297D9"/>
<path d="M236.5 323.2H220.2V335H236.5V323.2Z" fill="#3297D9"/>
<path d="M265.4 335.3H257.4V297.5C257.4 295.3 259.2 293.5 261.4 293.5C263.6 293.5 265.4 295.3 265.4 297.5V335.3Z" fill="#3297D9"/>
<path d="M200.3 335.3H192.3V297.5C192.3 295.3 194.1 293.5 196.3 293.5C198.5 293.5 200.3 295.3 200.3 297.5V335.3Z" fill="#3297D9"/>
<path opacity="0.3" d="M280.6 334.2L284.4 328.8V256.3L229.9 334.2H280.6Z" fill="white"/>
<path opacity="0.3" d="M223 334.2L284.4 246.6V230.2L211.6 334.2H223Z" fill="white"/>
<path opacity="0.3" d="M202.6 334.2L284.4 217.4V209.2L196.9 334.2H202.6Z" fill="white"/>
<path d="M284.4 162.2H180.4V334.2H284.4V162.2Z" stroke="#2D255E" stroke-width="6" stroke-miterlimit="10" stroke-linecap="round" stroke-linejoin="round"/>
<path d="M290.4 334.2H174.4V346.2H290.4V334.2Z" fill="#D49D7F"/>
<path d="M290.4 334.2H174.4V346.2H290.4V334.2Z" stroke="#2D255E" stroke-width="6" stroke-miterlimit="10" stroke-linecap="round" stroke-linejoin="round"/>
<path d="M455.865 450.236V157.636H317.865V450.236H455.865Z" fill="#D49D7F"/>
<path d="M455.865 450.236V157.636H317.865V450.236H455.865Z" stroke="#2D255E" stroke-width="6" stroke-miterlimit="10" stroke-linecap="round" stroke-linejoin="round"/>
<path d="M440.9 174H332.9V376.7H440.9V174Z" fill="#66CDFD"/>
<path opacity="0.3" d="M441.9 377.7V281.3L386.3 377.7H441.9Z" fill="white"/>
<path opacity="0.3" d="M379.7 376.7L440.9 270.7V237.5L360.6 376.7H379.7Z" fill="white"/>
<path opacity="0.3" d="M351.7 376.7L440.9 222.1V211.3L345.5 376.7H351.7Z" fill="white"/>
<path d="M440.9 174H332.9V376.7H440.9V174Z" stroke="#2D255E" stroke-width="6" stroke-miterlimit="10" stroke-linecap="round" stroke-linejoin="round"/>
<path d="M325.7 390.2H128.9V450.2H325.7V390.2Z" fill="#DB6B7B"/>
<path d="M137.3 390.2H128.9V450.2H137.3V390.2Z" fill="#CE5569"/>
<path d="M323.9 390.2H319V450.2H323.9V390.2Z" fill="#CE5569"/>
<path d="M325.7 390.2H128.9V450.2H325.7V390.2Z" stroke="#2D255E" stroke-width="6" stroke-miterlimit="10" stroke-linecap="round" stroke-linejoin="round"/>
<path d="M456.363 390.285H625.363V154.285H456.363V390.285Z" fill="#F5969C"/>
<path d="M611.5 367H586.2V378.7H611.5V367Z" fill="#DF747C"/>
<path d="M481.6 367H456.3V378.7H481.6V367Z" fill="#DF747C"/>
<path d="M596.3 352.3H571V364H596.3V352.3Z" fill="#DF747C"/>
<path d="M489.4 187.8H473.9V199.5H489.4V187.8Z" fill="#DF747C"/>
<path d="M470.8 301.2H455.3V312.9H470.8V301.2Z" fill="#DF747C"/>
<path d="M455.363 390.285H625.363V154.285H455.363V390.285Z" stroke="#2D255E" stroke-width="6" stroke-miterlimit="10" stroke-linecap="round" stroke-linejoin="round"/>
<path d="M592.8 162.2H488.8V334.2H592.8V162.2Z" fill="#66CDFD"/>
<path d="M525.8 324.4H564.1C565.6 324.4 566.8 323.2 566.8 321.7V320.5C566.8 319 565.6 317.8 564.1 317.8H525.8C524.3 317.8 523.1 319 523.1 320.5V321.7C523.1 323.2 524.3 324.4 525.8 324.4Z" fill="#3297D9"/>
<path d="M536.83 335.023H553.13V323.223H536.83V335.023Z" fill="#3297D9"/>
<path d="M507.9 335.3H515.9V297.5C515.9 295.3 514.1 293.5 511.9 293.5C509.7 293.5 507.9 295.3 507.9 297.5V335.3Z" fill="#3297D9"/>
<path d="M572.9 335.3H580.9V297.5C580.9 295.3 579.1 293.5 576.9 293.5C574.7 293.5 572.9 295.3 572.9 297.5V335.3Z" fill="#3297D9"/>
<path opacity="0.3" d="M589.1 334.2L592.8 328.8V256.3L538.3 334.2H589.1Z" fill="white"/>
<path opacity="0.3" d="M531.5 334.2L592.8 246.6V230.2L520 334.2H531.5Z" fill="white"/>
<path opacity="0.3" d="M511 334.2L592.8 217.4V209.2L505.3 334.2H511Z" fill="white"/>
<path d="M592.8 162.2H488.8V334.2H592.8V162.2Z" stroke="#2D255E" stroke-width="6" stroke-miterlimit="10" stroke-linecap="round" stroke-linejoin="round"/>
<path opacity="0.18" d="M598.8 342.2H482.8V348.3H598.8V342.2Z" fill="#282828" stroke="#282828" stroke-width="6" stroke-miterlimit="10" stroke-linecap="round" stroke-linejoin="round"/>
<path d="M482.863 346.215H598.863V334.215H482.863V346.215Z" fill="#D49D7F"/>
<path d="M482.863 346.215H598.863V334.215H482.863V346.215Z" stroke="#2D255E" stroke-width="6" stroke-miterlimit="10" stroke-linecap="round" stroke-linejoin="round"/>
<path d="M449.096 450.285H644.296V390.285H449.096V450.285Z" fill="#DB6B7B"/>
<path d="M456.4 390.2H449.2V450.2H456.4V390.2Z" fill="#CE5569"/>
<path d="M449.096 450.285H644.296V390.285H449.096V450.285Z" stroke="#2D255E" stroke-width="6" stroke-miterlimit="10" stroke-linecap="round" stroke-linejoin="round"/>
<path d="M352.3 316C349.8 316 347.8 314 347.8 311.5V263.2C347.8 260.7 349.8 258.7 352.3 258.7C354.8 258.7 356.8 260.7 356.8 263.2V311.5C356.8 314 354.8 316 352.3 316Z" fill="#2D255E"/>
<path opacity="0.18" d="M589.9 123.8H531.9H473.9H415.9H357.9H299.9H241.9H183.9H147.9V184.9C150.1 185.5 152.5 185.8 154.9 185.8C170.9 185.8 183.9 172.8 183.9 156.8C183.9 172.8 196.9 185.8 212.9 185.8C228.9 185.8 241.9 172.8 241.9 156.8C241.9 172.8 254.9 185.8 270.9 185.8C286.9 185.8 299.9 172.8 299.9 156.8C299.9 172.8 312.9 185.8 328.9 185.8C344.9 185.8 357.9 172.8 357.9 156.8C357.9 172.8 370.9 185.8 386.9 185.8C402.9 185.8 415.9 172.8 415.9 156.8C415.9 172.8 428.9 185.8 444.9 185.8C460.9 185.8 473.9 172.8 473.9 156.8C473.9 172.8 486.9 185.8 502.9 185.8C518.9 185.8 531.9 172.8 531.9 156.8C531.9 172.8 544.9 185.8 560.9 185.8C576.9 185.8 589.9 172.8 589.9 156.8C589.9 172.8 602.9 185.8 618.9 185.8C621.1 185.8 623.3 185.5 625.3 185.1V123.8H589.9Z" fill="#282828" stroke="#282828" stroke-width="6" stroke-miterlimit="10" stroke-linecap="round" stroke-linejoin="round"/>
<path d="M560.9 179.8C544.9 179.8 531.9 166.8 531.9 150.8V117.8H589.9V150.8C589.9 166.8 576.9 179.8 560.9 179.8Z" fill="#D68821"/>
<path d="M502.9 179.8C486.9 179.8 473.9 166.8 473.9 150.8V117.8H531.9V150.8C531.9 166.8 518.9 179.8 502.9 179.8Z" fill="#D6D6D6"/>
<path d="M444.9 179.8C428.9 179.8 415.9 166.8 415.9 150.8V117.8H473.9V150.8C473.9 166.8 460.9 179.8 444.9 179.8Z" fill="#D68821"/>
<path d="M386.9 179.8C370.9 179.8 357.9 166.8 357.9 150.8V117.8H415.9V150.8C415.9 166.8 402.9 179.8 386.9 179.8Z" fill="#D6D6D6"/>
<path d="M328.9 179.8C312.9 179.8 299.9 166.8 299.9 150.8V117.8H357.9V150.8C357.9 166.8 344.9 179.8 328.9 179.8Z" fill="#D68821"/>
<path d="M270.9 179.8C254.9 179.8 241.9 166.8 241.9 150.8V117.8H299.9V150.8C299.9 166.8 286.9 179.8 270.9 179.8Z" fill="#D6D6D6"/>
<path d="M212.9 179.8C196.9 179.8 183.9 166.8 183.9 150.8V117.8H241.9V150.8C241.9 166.8 228.9 179.8 212.9 179.8Z" fill="#D68821"/>
<path d="M154.9 179.8C138.9 179.8 125.9 166.8 125.9 150.8V117.8H183.9V150.8C183.9 166.8 170.9 179.8 154.9 179.8Z" fill="#D6D6D6"/>
<path d="M560.9 179.8C544.9 179.8 531.9 166.8 531.9 150.8V117.8H589.9V150.8C589.9 166.8 576.9 179.8 560.9 179.8Z" stroke="#2D255E" stroke-width="6" stroke-miterlimit="10" stroke-linecap="round" stroke-linejoin="round"/>
<path d="M502.9 179.8C486.9 179.8 473.9 166.8 473.9 150.8V117.8H531.9V150.8C531.9 166.8 518.9 179.8 502.9 179.8Z" stroke="#2D255E" stroke-width="6" stroke-miterlimit="10" stroke-linecap="round" stroke-linejoin="round"/>
<path d="M444.9 179.8C428.9 179.8 415.9 166.8 415.9 150.8V117.8H473.9V150.8C473.9 166.8 460.9 179.8 444.9 179.8Z" stroke="#2D255E" stroke-width="6" stroke-miterlimit="10" stroke-linecap="round" stroke-linejoin="round"/>
<path d="M386.9 179.8C370.9 179.8 357.9 166.8 357.9 150.8V117.8H415.9V150.8C415.9 166.8 402.9 179.8 386.9 179.8Z" stroke="#2D255E" stroke-width="6" stroke-miterlimit="10" stroke-linecap="round" stroke-linejoin="round"/>
<path d="M328.9 179.8C312.9 179.8 299.9 166.8 299.9 150.8V117.8H357.9V150.8C357.9 166.8 344.9 179.8 328.9 179.8Z" stroke="#2D255E" stroke-width="6" stroke-miterlimit="10" stroke-linecap="round" stroke-linejoin="round"/>
<path d="M270.9 179.8C254.9 179.8 241.9 166.8 241.9 150.8V117.8H299.9V150.8C299.9 166.8 286.9 179.8 270.9 179.8Z" stroke="#2D255E" stroke-width="6" stroke-miterlimit="10" stroke-linecap="round" stroke-linejoin="round"/>
<path d="M212.9 179.8C196.9 179.8 183.9 166.8 183.9 150.8V117.8H241.9V150.8C241.9 166.8 228.9 179.8 212.9 179.8Z" stroke="#2D255E" stroke-width="6" stroke-miterlimit="10" stroke-linecap="round" stroke-linejoin="round"/>
<path d="M154.9 179.8C138.9 179.8 125.9 166.8 125.9 150.8V117.8H183.9V150.8C183.9 166.8 170.9 179.8 154.9 179.8Z" stroke="#2D255E" stroke-width="6" stroke-miterlimit="10" stroke-linecap="round" stroke-linejoin="round"/>
<path d="M647.9 117.8H589.9L572.8 21.8H625.9L647.9 117.8Z" stroke="#2D255E" stroke-width="6" stroke-miterlimit="10" stroke-linecap="round" stroke-linejoin="round"/>
<path d="M589.9 117.8H531.9L519.7 21.8H572.8L589.9 117.8Z" stroke="#2D255E" stroke-width="6" stroke-miterlimit="10" stroke-linecap="round" stroke-linejoin="round"/>
<path d="M531.9 117.8H473.9L466.6 21.8H519.7L531.9 117.8Z" stroke="#2D255E" stroke-width="6" stroke-miterlimit="10" stroke-linecap="round" stroke-linejoin="round"/>
<path d="M473.9 117.8H415.9L413.5 21.8H466.6L473.9 117.8Z" stroke="#2D255E" stroke-width="6" stroke-miterlimit="10" stroke-linecap="round" stroke-linejoin="round"/>
<path d="M415.9 117.8H357.9L360.4 21.8H413.5L415.9 117.8Z" stroke="#2D255E" stroke-width="6" stroke-miterlimit="10" stroke-linecap="round" stroke-linejoin="round"/>
<path d="M357.9 117.8H299.9L307.3 21.8H360.4L357.9 117.8Z" stroke="#2D255E" stroke-width="6" stroke-miterlimit="10" stroke-linecap="round" stroke-linejoin="round"/>
<path d="M299.9 117.8H241.9L254.1 21.8H307.3L299.9 117.8Z" stroke="#2D255E" stroke-width="6" stroke-miterlimit="10" stroke-linecap="round" stroke-linejoin="round"/>
<path d="M241.9 117.8H183.9L201 21.8H254.1L241.9 117.8Z" stroke="#2D255E" stroke-width="6" stroke-miterlimit="10" stroke-linecap="round" stroke-linejoin="round"/>
<path d="M183.9 117.8H125.9L147.9 21.8H201L183.9 117.8Z" stroke="#2D255E" stroke-width="6" stroke-miterlimit="10" stroke-linecap="round" stroke-linejoin="round"/>
<path d="M625.9 3.79999H147.9V21.8H625.9V3.79999Z" fill="#DB6B7B"/>
<path d="M625.9 3.79999H147.9V10H625.9V3.79999Z" fill="#F5969C"/>
<path d="M625.9 3.79999H147.9V21.8H625.9V3.79999Z" stroke="#2D255E" stroke-width="6" stroke-miterlimit="10" stroke-linecap="round" stroke-linejoin="round"/>
<path d="M417.153 238.645L364.336 249.872L369.596 274.618L422.413 263.391L417.153 238.645Z" fill="#E8E8E8"/>
<path d="M417.153 238.645L364.336 249.872L369.596 274.618L422.413 263.391L417.153 238.645Z" stroke="#2D255E" stroke-width="3" stroke-miterlimit="10" stroke-linecap="round" stroke-linejoin="round"/>
<path d="M376.2 255.5L408.7 248.6C410 248.3 411.2 249.1 411.5 250.4L412.5 254.9C412.8 256.2 412 257.4 410.7 257.7L378.2 264.6C376.9 264.9 375.7 264.1 375.4 262.8L374.4 258.3C374.1 257 374.9 255.8 376.2 255.5Z" fill="#D3D3D3"/>
<path d="M380.8 245.3L389.1 221L399.2 240.7" stroke="#2D255E" stroke-width="2" stroke-miterlimit="10" stroke-linecap="round" stroke-linejoin="round"/>
<path d="M389.1 225.3C390.756 225.3 392.1 223.957 392.1 222.3C392.1 220.643 390.756 219.3 389.1 219.3C387.443 219.3 386.1 220.643 386.1 222.3C386.1 223.957 387.443 225.3 389.1 225.3Z" fill="#2D255E"/>
<path d="M232.1 367H206.8V378.7H232.1V367Z" fill="#DF747C"/>
<path d="M618.9 179.8C602.9 179.8 589.9 166.8 589.9 150.8V117.8H647.9V150.8C647.9 166.8 634.9 179.8 618.9 179.8Z" fill="#D6D6D6"/>
<path d="M618.9 179.8C602.9 179.8 589.9 166.8 589.9 150.8V117.8H647.9V150.8C647.9 166.8 634.9 179.8 618.9 179.8Z" stroke="#2D255E" stroke-width="6" stroke-miterlimit="10" stroke-linecap="round" stroke-linejoin="round"/>
<path d="M656.8 295.3H618.8V450.3H656.8V295.3Z" fill="#D6D6D6"/>
<path d="M646.5 295.3H627.2V450.3H646.5V295.3Z" fill="white"/>
<path d="M656.8 295.3H618.8V450.3H656.8V295.3Z" stroke="#2D255E" stroke-width="6" stroke-miterlimit="10" stroke-linecap="round" stroke-linejoin="round"/>
<path d="M639.9 316.2H634.8C632.1 316.2 630 314.1 630 311.4V297.5H644.7V311.4C644.7 314 642.5 316.2 639.9 316.2Z" fill="#2D255E"/>
<path d="M4.80005 450.2H703" stroke="#2D255E" stroke-width="8" stroke-miterlimit="10" stroke-linecap="round" stroke-linejoin="round"/>
</svg>
